<svg width="64" height="19" viewBox="0 0 64 19" fill="none" xmlns="http://www.w3.org/2000/svg">
<path d="M13.952 16.872C13.408 17.208 12.728 17.52 11.912 17.808C11.112 18.08 10.216 18.208 9.224 18.192C7.928 18.192 6.752 17.968 5.696 17.52C4.64 17.056 3.736 16.432 2.984 15.648C2.232 14.848 1.648 13.936 1.232 12.912C0.832 11.872 0.632 10.768 0.632 9.6C0.632 8.352 0.848 7.192 1.28 6.12C1.712 5.048 2.32 4.112 3.104 3.312C3.888 2.512 4.8 1.888 5.84 1.44C6.88 0.991999 8.008 0.767999 9.224 0.767999C10.12 0.767999 10.96 0.887999 11.744 1.128C12.528 1.368 13.24 1.68 13.88 2.064L13.376 3.144C12.816 2.792 12.184 2.496 11.48 2.256C10.776 2.016 10.032 1.896 9.248 1.896C8.24 1.896 7.288 2.096 6.392 2.496C5.496 2.88 4.704 3.424 4.016 4.128C3.344 4.816 2.816 5.624 2.432 6.552C2.048 7.48 1.856 8.48 1.856 9.552C1.856 10.928 2.16 12.184 2.768 13.32C3.376 14.456 4.232 15.368 5.336 16.056C6.44 16.728 7.744 17.064 9.248 17.064C10.08 17.064 10.84 16.952 11.528 16.728C12.232 16.488 12.856 16.192 13.4 15.84L13.952 16.872ZM17.2258 9.504C17.2258 8.304 17.4498 7.184 17.8978 6.144C18.3458 5.088 18.9698 4.16 19.7698 3.36C20.5698 2.544 21.4898 1.912 22.5298 1.464C23.5858 0.999999 24.7138 0.767999 25.9138 0.767999C27.1137 0.767999 28.2418 0.999999 29.2978 1.464C30.3538 1.912 31.2818 2.544 32.0818 3.36C32.8818 4.16 33.5058 5.088 33.9538 6.144C34.4178 7.184 34.6498 8.304 34.6498 9.504C34.6498 10.704 34.4178 11.832 33.9538 12.888C33.5058 13.928 32.8818 14.848 32.0818 15.648C31.2818 16.448 30.3538 17.072 29.2978 17.52C28.2418 17.968 27.1137 18.192 25.9138 18.192C24.7138 18.192 23.5858 17.976 22.5298 17.544C21.4898 17.112 20.5698 16.504 19.7698 15.72C18.9698 14.936 18.3458 14.016 17.8978 12.96C17.4498 11.904 17.2258 10.752 17.2258 9.504ZM18.4258 9.528C18.4258 10.568 18.6178 11.544 19.0018 12.456C19.3858 13.368 19.9218 14.168 20.6098 14.856C21.2978 15.544 22.0898 16.088 22.9858 16.488C23.8978 16.872 24.8658 17.064 25.8898 17.064C26.9458 17.064 27.9298 16.872 28.8418 16.488C29.7538 16.088 30.5538 15.544 31.2418 14.856C31.9298 14.168 32.4658 13.368 32.8498 12.456C33.2498 11.544 33.4498 10.56 33.4498 9.504C33.4498 8.464 33.2498 7.488 32.8498 6.576C32.4658 5.648 31.9298 4.84 31.2418 4.152C30.5538 3.448 29.7538 2.896 28.8418 2.496C27.9298 2.096 26.9538 1.896 25.9138 1.896C24.8578 1.896 23.8738 2.104 22.9618 2.52C22.0498 2.92 21.2498 3.472 20.5618 4.176C19.8898 4.88 19.3618 5.696 18.9778 6.624C18.6098 7.536 18.4258 8.504 18.4258 9.528ZM42.9371 0.959999C44.5051 0.959999 45.7771 1.36 46.7531 2.16C47.7291 2.96 48.2171 4.168 48.2171 5.784C48.2171 6.632 48.0331 7.448 47.6651 8.232C47.2971 9 46.7131 9.632 45.9131 10.128C45.1291 10.608 44.0971 10.848 42.8171 10.848H40.1771V18H39.0011V0.959999H42.9371ZM42.8171 9.72C43.6491 9.72 44.3371 9.592 44.8811 9.336C45.4411 9.064 45.8731 8.728 46.1771 8.328C46.4971 7.912 46.7211 7.48 46.8491 7.032C46.9931 6.584 47.0651 6.168 47.0651 5.784C47.0651 4.696 46.7131 3.808 46.0091 3.12C45.3211 2.432 44.3371 2.088 43.0571 2.088H40.1771V9.72H42.8171ZM56.4065 11.928L50.0465 0.959999H51.4865L57.0305 10.608L62.5265 0.959999H63.9425L57.5825 11.928V18H56.4065V11.928Z" fill="black"/>
</svg>
